<?xml version="1.0" encoding="UTF-8"?>
<svg version="1.1" xmlns="http://www.w3.org/2000/svg" width="1024" height="1024">
<path d="M0 0 C337.92 0 675.84 0 1024 0 C1024 337.92 1024 675.84 1024 1024 C686.08 1024 348.16 1024 0 1024 C0 686.08 0 348.16 0 0 Z " fill="#FBFBFA" transform="translate(0,0)"/>
<path d="M0 0 C15.34465823 -0.04666523 30.68930581 -0.0821746 46.03401852 -0.10362434 C53.16178264 -0.11385668 60.28950138 -0.12775921 67.41723633 -0.15087891 C73.64309127 -0.1710633 79.86891329 -0.18377451 86.09480006 -0.18817699 C89.37926039 -0.19074291 92.66360684 -0.19771386 95.94804192 -0.21146011 C137.35515908 -0.37761759 177.46326142 2.00463401 211 29 C211.52577637 29.42039551 212.05155273 29.84079102 212.59326172 30.27392578 C238.19082472 50.86923959 255.9004665 80.75116848 259.79931641 113.65014648 C261.09431821 128.81364079 260.67213887 144.21298597 257 159 C256.83902832 159.68819824 256.67805664 160.37639648 256.51220703 161.08544922 C249.51406581 190.40235013 229.42931276 215.47033892 204.1875 231.51171875 C188.89187152 240.83431674 172.57674329 246.56377947 155.125 250.1875 C154.38386963 250.34259033 153.64273926 250.49768066 152.87915039 250.6574707 C135.21041848 254.08584366 117.67457382 254.27942747 99.73184347 254.20278788 C96.24857489 254.19009939 92.76530106 254.18909601 89.28201294 254.18673706 C82.71645934 254.18057459 76.15097409 254.16423639 69.58545029 254.14403808 C62.09788152 254.12151393 54.6103091 254.11064457 47.12271476 254.10064721 C31.74843613 254.07986409 16.37422966 254.04437922 1 254 C1 250.04 1 246.08 1 242 C2.16917969 241.89042969 3.33835937 241.78085937 4.54296875 241.66796875 C6.09121194 241.50845279 7.63938558 241.34826086 9.1875 241.1875 C10.34088867 241.08211914 10.34088867 241.08211914 11.51757812 240.97460938 C15.98739063 240.49501576 19.45479371 239.98782468 23 237 C29.7651789 225.45993702 28.29226656 209.44592139 28.25878906 196.43579102 C28.26150678 194.63524739 28.26507205 192.83470488 28.26940918 191.03416443 C28.27843814 186.19579062 28.27502984 181.35750318 28.26865101 176.51912808 C28.26354684 171.43315496 28.26829413 166.34718866 28.27142334 161.26121521 C28.27504789 152.7321542 28.27030131 144.20312798 28.26074219 135.67407227 C28.24983608 125.82980403 28.25340493 115.98561851 28.264395 106.14135224 C28.27348189 97.66027259 28.27474702 89.17921778 28.26951766 80.69813484 C28.26640882 75.6449348 28.26595919 70.59177363 28.27259064 65.53857613 C28.27838478 60.79339165 28.27432946 56.04831366 28.26280212 51.30314064 C28.26016764 49.5669599 28.26089982 47.83077014 28.26532745 46.09459305 C28.83387868 29.97396315 28.83387868 29.97396315 22 16 C15.14333657 12.44469303 7.59310146 11.90647981 0 11 C0 7.37 0 3.74 0 0 Z " fill="#000303" transform="translate(290,510)"/>
<path d="M0 0 C0.33 33.33 0.66 66.66 1 101 C5.95 97.37 10.9 93.74 16 90 C33.8247482 80.5831519 53.81247862 77.70389755 73.45532227 83.09960938 C91.55209229 88.68712344 105.24975116 101.34645687 114.125 117.875 C126.16656258 141.3516563 127.98533258 168.79140106 120 194 C115.68850616 206.69660601 108.79135086 217.9225397 100 228 C99.47019531 228.61359375 98.94039062 229.2271875 98.39453125 229.859375 C80.83134116 248.76690803 54.73262202 255.90823638 29.76171875 257.25390625 C8.46211287 258.01188289 -14.24138513 254.0422068 -34 246 C-34.00238835 244.92324697 -34.00477671 243.84649395 -34.00723743 242.73711205 C-34.0660096 216.54770117 -34.1418783 190.35838246 -34.23571491 164.1690731 C-34.28069687 151.50416266 -34.32010604 138.83928049 -34.34643555 126.17431641 C-34.36939614 115.13664143 -34.40277251 104.09905574 -34.44870156 93.06145155 C-34.47265984 87.21612889 -34.49137158 81.3708948 -34.49761391 75.52552414 C-34.50365291 70.02456231 -34.5236101 64.5238272 -34.55427551 59.02294922 C-34.5630747 57.0033386 -34.56677444 54.98369838 -34.56500816 52.96406937 C-34.56335821 50.2070965 -34.58003105 47.45081703 -34.60127258 44.69393921 C-34.59642501 43.89431712 -34.59157743 43.09469502 -34.58658296 42.27084196 C-34.64747555 37.48355553 -35.28416978 34.11102801 -38 30 C-43.90533436 26.99553164 -49.43347261 26.45600885 -56 26 C-56 22.7 -56 19.4 -56 16 C-51.07540734 13.80434726 -46.16045814 11.99727676 -41.01171875 10.40625 C-40.26847855 10.17345337 -39.52523834 9.94065674 -38.75947571 9.70080566 C-36.40320884 8.96376276 -34.04537982 8.23186423 -31.6875 7.5 C-30.11773713 7.00943897 -28.5480748 6.51855613 -26.97851562 6.02734375 C-23.98036323 5.08971702 -20.98015572 4.15918704 -17.97802734 3.234375 C-15.57946571 2.49480727 -13.1925272 1.73524672 -10.80712891 0.953125 C-9.92847168 0.66953125 -9.04981445 0.3859375 -8.14453125 0.09375 C-7.42241455 -0.14666016 -6.70029785 -0.38707031 -5.95629883 -0.63476562 C-4 -1 -4 -1 0 0 Z " fill="#000303" transform="translate(358,220)"/>
<path d="M0 0 C37.91937031 0 76.57175905 1.6626344 105 29.84375 C129.56020304 55.22053268 135.7139469 88.85360022 135.2734375 123.05859375 C134.73809601 150.25314397 125.26230835 175.71029149 106 195 C105.26910156 195.7425 104.53820312 196.485 103.78515625 197.25 C76.37058111 223.38829139 34.76427805 222 0 222 C0 148.74 0 75.48 0 0 Z " fill="#FBFBFA" transform="translate(364,526)"/>
<path d="M0 0 C0.85345001 0.00553894 1.70690002 0.01107788 2.58621216 0.01678467 C16.04288922 0.11893039 28.73267455 1.19766783 41.8125 4.5 C44.01786641 5.0236655 46.22361744 5.54571302 48.4296875 6.06640625 C65.47487406 10.16237406 65.47487406 10.16237406 66.8125 11.5 C66.90646057 13.43306498 66.92993517 15.36958838 66.92602539 17.30493164 C66.92594986 18.54614273 66.92587433 19.78735382 66.92579651 21.06617737 C66.92068911 22.4308374 66.9154731 23.79549702 66.91015625 25.16015625 C66.908292 26.54878183 66.90686813 27.93740807 66.90586853 29.32603455 C66.90204387 32.98721115 66.89221403 36.6483483 66.88116455 40.30950928 C66.87094932 44.04292263 66.86637067 47.77634234 66.86132812 51.50976562 C66.85059171 58.83986177 66.83351591 66.16992536 66.8125 73.5 C62.73462105 74.39445704 58.99251995 74.58196118 54.8125 74.5 C54.50957031 73.32824219 54.20664062 72.15648437 53.89453125 70.94921875 C51.55537752 62.09459245 49.14588643 53.62348261 44.8125 45.5 C44.34972656 44.62859375 43.88695312 43.7571875 43.41015625 42.859375 C36.62780201 30.84183486 27.55665594 24.83043011 14.578125 20.39453125 C-0.72706722 16.33979749 -16.91696691 17.49441963 -30.9375 25.06640625 C-39.83914937 30.73811687 -44.39878027 39.24604152 -46.79272461 49.37426758 C-48.80691917 60.22002639 -48.06815375 71.37795907 -41.75 80.59765625 C-26.46277719 99.66993663 2.38076623 108.87955672 23.88085938 118.93505859 C47.91695633 130.17787109 68.88697589 141.47111819 78.8125 167.5 C84.62493452 185.9822356 82.82239502 204.28233336 74.625 221.6875 C64.9449094 239.99279954 50.33835643 254.54347376 30.58984375 261.4375 C1.08168622 269.7376229 -28.28830236 266.97305623 -57.8125 260.125 C-59.02035156 259.84519287 -60.22820313 259.56538574 -61.47265625 259.27709961 C-70.22280053 257.15964616 -78.69364928 254.45678638 -87.1875 251.5 C-87.80720617 229.49713468 -88.38690177 207.51395538 -88.1875 185.5 C-85.43671116 184.58307039 -83.82801087 184.39113917 -81 184.4375 C-79.741875 184.458125 -78.48375 184.47875 -77.1875 184.5 C-76.7853125 186.06234375 -76.7853125 186.06234375 -76.375 187.65625 C-72.40205859 202.44046042 -66.82985238 216.20486392 -56.1875 227.5 C-55.47335937 228.26699219 -54.75921875 229.03398438 -54.0234375 229.82421875 C-39.75106024 243.88179434 -21.65971672 247.99401159 -2.16845703 247.85424805 C9.17180629 247.57609806 21.10249611 245.50165415 29.84765625 237.6796875 C39.18451376 227.5697144 41.30695746 216.37921981 41.05859375 202.89453125 C40.28366207 192.20539427 35.59410232 183.93252568 28 176.5 C16.87573247 167.19006935 2.47722516 161.93549175 -10.65795898 156.16210938 C-47.04587926 140.15091713 -47.04587926 140.15091713 -58.1875 131.5 C-58.90164063 130.96503906 -59.61578125 130.43007813 -60.3515625 129.87890625 C-74.62847209 118.38571842 -82.62929314 101.33365357 -85.1875 83.5 C-86.84303638 62.68162997 -82.13502 42.1445712 -68.55322266 25.9909668 C-50.90390049 5.91541497 -25.76583655 -0.32963228 0 0 Z " fill="#000303" transform="translate(654.1875,503.5)"/>
<path d="M0 0 C28.38 0 56.76 0 86 0 C86 7 86 7 85 10 C83.37191406 10.03867187 83.37191406 10.03867187 81.7109375 10.078125 C80.26558651 10.13443738 78.82027556 10.191784 77.375 10.25 C76.66214844 10.26417969 75.94929687 10.27835937 75.21484375 10.29296875 C70.09610556 10.52777325 67.07007197 11.65105189 63 15 C60.59811228 18.60283158 60.31378563 20.84618875 61 25 C64.81319589 36.8351763 70.42729172 48.1695636 75.5 59.5 C76.39542945 61.50599321 77.29060974 63.51209766 78.18554688 65.51831055 C79.96154964 69.49796392 81.73958437 73.476699 83.51953125 77.45458984 C85.39024549 81.63542073 87.25733297 85.81784586 89.12145996 90.00161743 C90.3097097 92.66801193 91.4996244 95.33366029 92.69018555 97.99902344 C93.47455548 99.75552023 94.2578044 101.51251749 95.04101562 103.26953125 C97.57025996 108.91621627 100.1824744 114.49120584 103 120 C105.07681505 116.88477742 106.05642161 114.21817897 107.24316406 110.67456055 C107.45815048 110.03646454 107.6731369 109.39836853 107.89463806 108.74093628 C108.60626545 106.62438514 109.31119527 104.50567537 110.015625 102.38671875 C110.51384065 100.89664042 111.01227793 99.40663618 111.51092529 97.91670227 C112.5596311 94.77953569 113.60490783 91.64125148 114.64794922 88.50219727 C115.70405286 85.32479934 116.76482872 82.14903296 117.83056641 78.97485352 C125.14008126 57.30616535 125.14008126 57.30616535 131.671875 35.39453125 C131.90465149 34.56612228 132.13742798 33.73771332 132.3772583 32.88420105 C135.14072613 23.3363768 135.14072613 23.3363768 134.17840576 13.78279114 C132.32505007 10.9788791 130.20781847 10.7722526 127 10 C124.33381973 9.58280992 121.68647132 9.27791083 119 9 C119.33 6.03 119.66 3.06 120 0 C139.47 0 158.94 0 179 0 C178 9 178 9 177 10 C174.51777659 10.28484531 172.03531145 10.44806553 169.54296875 10.62109375 C166.85271444 11.02194577 165.29516913 11.55650629 163 13 C157.54967621 21.46083137 154.68570344 32.48323134 151.13180542 41.88366699 C141.949191 66.15308392 132.4164032 90.27877193 122.82116699 114.3873291 C119.58232062 122.52708959 116.36159021 130.67387324 113.14871216 138.82391357 C109.73999453 147.47053116 106.31893784 156.11221108 102.89129639 164.75134277 C102.03797255 166.90419882 101.18687978 169.057923 100.33642578 171.21191406 C83.16259825 214.66080672 83.16259825 214.66080672 66 225 C59.84242001 227.05252666 54.47368134 227.17982448 48 227 C46.35 223.7 44.7 220.4 43 217 C43.87140625 216.62230469 44.7428125 216.24460937 45.640625 215.85546875 C61.11872072 208.70271239 71.43568427 198.15276567 79.3125 183.0625 C79.66280273 182.40612549 80.01310547 181.74975098 80.37402344 181.07348633 C83.55401539 174.72213517 85.17212238 169.56420886 82.88745117 162.61694336 C81.23526411 158.4815956 79.33386912 154.46495937 77.4375 150.4375 C76.74226924 148.91974271 76.04935556 147.40092212 75.35864258 145.88110352 C73.9381139 142.75931194 72.50852273 139.64192833 71.07226562 136.52734375 C68.30516812 130.50697666 65.65945898 124.43513644 63.02157593 118.35733032 C61.59461602 115.0728321 60.15809945 111.79251606 58.72265625 108.51171875 C58.42756668 107.83682907 58.13247711 107.16193939 57.82844543 106.46659851 C52.03905714 93.22590896 46.23510234 79.9916439 40.41279602 66.76539612 C38.13773186 61.59500055 35.87284879 56.4202945 33.61581421 51.24200439 C32.17534409 47.9413056 30.72783668 44.64372434 29.27874756 41.34680176 C28.60305913 39.80540633 27.93031563 38.26271596 27.26080322 36.71862793 C21.8882399 22.09947846 21.8882399 22.09947846 11.1875 12 C6.86508208 10.75427414 2.47294084 10.3494485 -2 10 C-1.34 6.7 -0.68 3.4 0 0 Z " fill="#010303" transform="translate(477,304)"/>
<path d="M0 0 C0.76957031 0.4125 1.53914063 0.825 2.33203125 1.25 C16.45036002 9.71618693 23.01480289 23.3322586 27.23828125 38.67578125 C32.23593857 60.48607039 29.8980235 86.7697006 18.11328125 106.09375 C10.21228754 117.39418894 0.50460385 126.94080637 -13.17578125 130.52734375 C-25.3053366 132.55732466 -37.09202933 131.2416492 -47.4375 124.3125 C-52.02834501 120.38962208 -55.32232363 115.52439303 -56.47584343 109.52528 C-56.68032987 106.82312696 -56.73286127 104.1605375 -56.72631836 101.45068359 C-56.74311142 100.43648849 -56.75990448 99.4222934 -56.77720642 98.37736511 C-56.82440489 95.05073827 -56.83445111 91.7253775 -56.83984375 88.3984375 C-56.85592409 86.07393893 -56.87274577 83.74944538 -56.89027405 81.42495728 C-56.92013739 76.56476095 -56.9294826 71.7050081 -56.92651367 66.84472656 C-56.92600436 60.62181732 -56.99441627 54.40174555 -57.08037472 48.17951012 C-57.13599161 43.38380902 -57.14610968 38.5887953 -57.14346504 33.79280472 C-57.14935745 31.49863475 -57.17143122 29.20444612 -57.21012688 26.91059494 C-57.48433653 8.98650767 -57.48433653 8.98650767 -53.80319214 4.0599823 C-51.22841772 2.21763206 -48.97389744 1.04994609 -46 0 C-44.99453125 -0.51433594 -43.9890625 -1.02867187 -42.953125 -1.55859375 C-29.85475028 -5.81745836 -12.30358725 -6.8711133 0 0 Z " fill="#FBFBFA" transform="translate(414,329)"/>
</svg>
